<?xml version="1.0"?>
<svg xmlns="http://www.w3.org/2000/svg" height="100px" viewBox="0 0 496 496" width="100px"><path d="m488 336h-24v-24c0-36.992188-28.054688-67.527344-64-71.527344v-232.472656c0-4.414062-3.585938-8-8-8h-384c-4.414062 0-8 3.585938-8 8v480c0 4.414062 3.585938 8 8 8h480c4.414062 0 8-3.585938 8-8v-144c0-4.414062-3.585938-8-8-8zm-8 112h-176v-96h176zm-160-136v24h-24c-4.414062 0-8 3.585938-8 8v56h-40.71875c-3.386719-20.054688-19.226562-35.886719-39.28125-39.28125v-225.4375c20.054688-3.386719 35.886719-19.226562 39.28125-39.28125h78.605469c13.96875 0 27.113281-7.441406 34.296875-19.414062l23.816406-39.707032v203.59375c-35.945312 4-64 34.535156-64 71.527344zm-120-192c-17.648438 0-32-14.351562-32-32s14.351562-32 32-32 32 14.351562 32 32-14.351562 32-32 32zm0 256c17.648438 0 32 14.351562 32 32s-14.351562 32-32 32-32-14.351562-32-32 14.351562-32 32-32zm146.464844-307.65625c-4.3125 7.191406-12.199219 11.65625-20.585938 11.65625h-78.597656c-3.832031-22.664062-23.546875-40-47.28125-40s-43.449219 17.335938-47.28125 40h-78.605469c-8.386719 0-16.265625-4.464844-20.578125-11.65625l-31.40625-52.34375h355.742188zm-306.640625 8.242188c7.175781 11.972656 20.328125 19.414062 34.296875 19.414062h78.605468c3.386719 20.054688 19.226563 35.886719 39.28125 39.28125v225.4375c-20.054687 3.386719-35.886718 19.226562-39.28125 39.28125h-78.605468c-13.96875 0-27.113282 7.441406-34.296875 19.414062l-23.824219 39.707032v-422.242188zm13.710937 351.070312c4.3125-7.191406 12.199219-11.65625 20.585938-11.65625h78.605468c3.824219 22.664062 23.539063 40 47.28125 40 23.746094 0 43.449219-17.335938 47.28125-40h40.710938v64h-265.871094zm362.464844-91.65625h-48v-24c0-13.230469 10.769531-24 24-24s24 10.769531 24 24zm32-24v24h-16v-24c0-22.054688-17.945312-40-40-40s-40 17.945312-40 40v24h-16v-24c0-30.878906 25.121094-56 56-56s56 25.121094 56 56zm-144 168v-16h176v16zm0 0" fill="#008acf"/><path d="m392 432c17.648438 0 32-14.351562 32-32s-14.351562-32-32-32-32 14.351562-32 32 14.351562 32 32 32zm0-48c8.824219 0 16 7.175781 16 16s-7.175781 16-16 16-16-7.175781-16-16 7.175781-16 16-16zm0 0" fill="#008acf"/><path d="m445.65625 61.65625 18.34375-18.34375 18.34375 18.34375 11.3125-11.3125-18.34375-18.34375 18.34375-18.34375-11.3125-11.3125-18.34375 18.34375-18.34375-18.34375-11.3125 11.3125 18.34375 18.34375-18.34375 18.34375zm0 0" fill="#008acf"/><path d="m445.65625 141.65625 18.34375-18.34375 18.34375 18.34375 11.3125-11.3125-18.34375-18.34375 18.34375-18.34375-11.3125-11.3125-18.34375 18.34375-18.34375-18.34375-11.3125 11.3125 18.34375 18.34375-18.34375 18.34375zm0 0" fill="#008acf"/><path d="m445.65625 221.65625 18.34375-18.34375 18.34375 18.34375 11.3125-11.3125-18.34375-18.34375 18.34375-18.34375-11.3125-11.3125-18.34375 18.34375-18.34375-18.34375-11.3125 11.3125 18.34375 18.34375-18.34375 18.34375zm0 0" fill="#008acf"/></svg>
